<?xml version="1.0" standalone="no"?>
<!DOCTYPE svg PUBLIC "-//W3C//DTD SVG 20010904//EN"
 "http://www.w3.org/TR/2001/REC-SVG-20010904/DTD/svg10.dtd">
<svg version="1.0" xmlns="http://www.w3.org/2000/svg"
 width="500.000000pt" height="500.000000pt" viewBox="0 0 500.000000 500.000000"
 preserveAspectRatio="xMidYMid meet">
<metadata>
Created by potrace 1.14, written by Peter Selinger 2001-2017
</metadata>
<g transform="translate(0.000000,500.000000) scale(0.100000,-0.100000)"
fill="#000000" stroke="none">
<path d="M0 4465 l0 -535 199 0 c181 0 200 -2 205 -17 6 -18 28 -130 172 -870
43 -222 81 -403 84 -403 3 0 54 282 113 628 60 345 111 635 113 645 5 16 45
17 665 17 l659 0 -2 -1422 -3 -1423 -442 -3 -443 -2 -2 942 -3 943 -53 -290
c-154 -851 -282 -1553 -287 -1572 l-5 -23 -313 0 -313 0 -67 343 c-37 188
-113 571 -168 852 -55 280 -103 512 -105 514 -2 2 -4 -624 -4 -1392 l0 -1397
2500 0 2500 0 0 1022 c0 562 -2 1019 -4 1017 -2 -2 -14 -60 -26 -129 -12 -69
-54 -282 -94 -475 l-73 -350 -491 -3 c-271 -1 -492 1 -492 5 0 5 81 359 180
787 99 429 180 787 180 796 0 10 -50 188 -110 396 -61 208 -140 480 -176 604
-36 124 -67 233 -70 243 -5 16 23 17 484 17 l489 0 18 -72 c15 -63 148 -539
174 -623 6 -19 9 302 10 868 l1 897 -2500 0 -2500 0 0 -535z m350 -35 l0 -250
-60 0 -60 0 0 250 0 250 60 0 60 0 0 -250z m472 188 c24 -35 84 -116 131 -181
l87 -119 0 181 0 181 50 0 50 0 0 -250 0 -250 -64 0 -63 0 -128 183 c-71 100
-132 186 -135 190 -4 5 -5 -78 -2 -182 l5 -191 -57 0 -56 0 0 250 0 250 68 0
68 0 46 -62z m2508 17 l0 -45 -95 0 -95 0 0 -205 0 -205 -57 0 -58 0 2 205 2
204 -97 3 -97 3 -3 43 -3 42 250 0 251 0 0 -45z m350 -50 l0 -95 135 0 135 0
0 95 0 95 55 0 55 0 0 -250 0 -250 -55 0 -55 0 0 110 0 110 -135 0 -135 0 0
-110 0 -110 -60 0 -60 0 0 243 c0 134 3 247 7 250 3 4 30 7 60 7 l53 0 0 -95z
m1110 50 l0 -45 -160 0 -160 0 0 -55 0 -55 156 0 155 0 -3 -41 -3 -41 -150 -1
-150 -2 -3 -62 -3 -63 165 0 c91 0 167 -3 169 -7 2 -5 2 -25 0 -45 l-5 -38
-224 0 -224 0 0 250 0 250 220 0 220 0 0 -45z m-1170 -2130 l0 -1425 -505 0
-505 0 0 1425 0 1425 505 0 505 0 0 -1425z"/>
</g>
</svg>
